<svg width="30" height="30" viewBox="0 0 30 30" fill="none" xmlns="http://www.w3.org/2000/svg">
<path d="M22.5102 5C19.8499 5 16.985 5.52869 15.0068 6.98258C13.0286 5.52869 10.1637 5 7.50341 5C5.52524 5 3.42428 5.29078 1.66439 6.04416C0.668486 6.48032 0 7.41874 0 8.48934V23.3983C0 25.1166 1.66439 26.3854 3.38336 25.9625C4.72033 25.632 6.13915 25.4866 7.50341 25.4866C9.63165 25.4866 11.8963 25.8303 13.7244 26.7026C14.543 27.0991 15.4707 27.0991 16.2756 26.7026C18.1037 25.8171 20.3684 25.4866 22.4966 25.4866C23.8608 25.4866 25.2797 25.632 26.6166 25.9625C28.3356 26.3986 30 25.1298 30 23.3983V8.48934C30 7.41874 29.3315 6.48032 28.3356 6.04416C26.5894 5.29078 24.4884 5 22.5102 5ZM27.2851 21.8255C27.2851 22.6582 26.4939 23.2661 25.648 23.1208C24.6248 22.9357 23.5607 22.8564 22.5102 22.8564C20.191 22.8564 16.8486 23.7155 15.0068 24.839V9.62601C16.8486 8.50255 20.191 7.64344 22.5102 7.64344C23.7653 7.64344 25.0068 7.76239 26.1937 8.01352C26.8213 8.14569 27.2851 8.68759 27.2851 9.3088V21.8255Z" fill="#A6A6A6"/>
<path d="M17.4748 13.7625C17.0748 13.7625 16.7123 13.5125 16.5873 13.1125C16.4248 12.625 16.6998 12.0875 17.1873 11.9375C19.1123 11.3125 21.5998 11.1125 23.8873 11.375C24.3998 11.4375 24.7748 11.9 24.7123 12.4125C24.6498 12.925 24.1873 13.3 23.6748 13.2375C21.6498 13 19.4373 13.1875 17.7623 13.725C17.6623 13.7375 17.5623 13.7625 17.4748 13.7625Z" fill="#A6A6A6"/>
<path d="M17.4748 17.0875C17.0748 17.0875 16.7123 16.8375 16.5873 16.4375C16.4248 15.95 16.6998 15.4125 17.1873 15.2625C19.0998 14.6375 21.5998 14.4375 23.8873 14.7C24.3998 14.7625 24.7748 15.225 24.7123 15.7375C24.6498 16.25 24.1873 16.625 23.6748 16.5625C21.6498 16.325 19.4373 16.5125 17.7623 17.05C17.6623 17.075 17.5623 17.0875 17.4748 17.0875Z" fill="#A6A6A6"/>
<path d="M17.4748 20.4125C17.0748 20.4125 16.7123 20.1625 16.5873 19.7625C16.4248 19.275 16.6998 18.7375 17.1873 18.5875C19.0998 17.9625 21.5998 17.7625 23.8873 18.025C24.3998 18.0875 24.7748 18.55 24.7123 19.0625C24.6498 19.575 24.1873 19.9375 23.6748 19.8875C21.6498 19.65 19.4373 19.8375 17.7623 20.375C17.6623 20.4 17.5623 20.4125 17.4748 20.4125Z" fill="#A6A6A6"/>
</svg>
