<svg width="30" height="30" viewBox="0 0 30 30" fill="none" xmlns="http://www.w3.org/2000/svg">
<path d="M15 0C6.72 0 0 6.72 0 15C0 23.28 6.72 30 15 30C23.28 30 30 23.28 30 15C30 6.72 23.28 0 15 0ZM17.115 24.135V25.005C17.115 26.1 16.215 27 15.12 27H15.105C14.01 27 13.11 26.1 13.11 25.005V24.105C11.115 23.685 9.345 22.59 8.595 20.745C8.25 19.92 8.895 19.005 9.795 19.005H10.155C10.71 19.005 11.16 19.38 11.37 19.905C11.805 21.03 12.945 21.81 15.135 21.81C18.075 21.81 18.735 20.34 18.735 19.425C18.735 18.18 18.075 17.01 14.73 16.215C11.01 15.315 8.46 13.785 8.46 10.71C8.46 8.13 10.545 6.45 13.125 5.895V4.995C13.125 3.9 14.025 3 15.12 3H15.135C16.23 3 17.13 3.9 17.13 4.995V5.925C19.2 6.435 20.505 7.725 21.075 9.315C21.375 10.14 20.745 11.01 19.86 11.01H19.47C18.915 11.01 18.465 10.62 18.315 10.08C17.97 8.94 17.025 8.205 15.135 8.205C12.885 8.205 11.535 9.225 11.535 10.665C11.535 11.925 12.51 12.75 15.54 13.53C18.57 14.31 21.81 15.615 21.81 19.395C21.78 22.14 19.725 23.64 17.115 24.135Z" fill="#A6A6A6"/>
</svg>
