<?xml version="1.0" encoding="UTF-8"?>
<svg xmlns="http://www.w3.org/2000/svg" viewBox="0 0 2383.7 756.9" width="2400" height="762.08053691275"><path d="M1130.5 479.2c-107.9 0-140.9-28.8-140.9-65.4V282.9h71.2v123.7c0 30.2 31.6 38.1 73.3 38.1 22.1.4 44.2-.5 66.2-2.9V282.2h71.2v187.7c-46.7 6.8-93.9 9.9-141 9.3M494.9 282.2v78.4H355.3v-78.4h-71.2v192h71.2v-79.1h139.5v79.1H566v-192h-71.1zM1431 321h191.3v-38.1h-206.4c-56.1 0-75.5 10.1-75.5 38.8v153.2h71.2v-80.5h210.7v-33.8h-210.7v-27.3c0-8 4.3-12.3 19.4-12.3M1768.3 321c-15.1 0-19.4 5-19.4 11.5v28h210.7v33.1h-210.7v30.9c0 7.2 4.3 11.5 19.4 11.5h191.3v38.1h-206.4c-56.1 0-75.5-10.1-75.5-38.8V321c0-28.8 19.4-38.8 75.5-38.8h206.4v38.1h-191.3v.7z"/><path fill="#075bfa" d="M2030.7 438.2c0-9.4 5.7-12.9 22.3-12.9h28c16.5 0 22.3 3.6 22.3 12.9v23c0 9.3-5.7 12.9-22.3 12.9h-28c-16.5 0-22.3-3.6-22.3-12.9v-23z"/><path d="M780.3 356.3c-38.3-.1-76.6 3-114.3 9.3-20.1 3.6-29.5 10.8-29.5 28v48.2c0 17.3 8.6 25.2 29.5 28 37.8 6 76 9.1 114.3 9.4 45.9.4 91.8-2.5 137.3-8.7V346.2c0-59.7-23-63.3-101.4-63.3H658.8V316h156c29.5 0 31.6 7.9 31.6 25.9V357h-66.2l.1-.7zm0 90.6c-19.5.3-39-1.1-58.2-4.3-10.1-1.4-14.4-5.7-14.4-13.7v-22.3c0-8.6 4.3-12.2 14.4-13.7 19.2-3.2 38.7-4.6 58.2-4.3h66.2v56.8c-13 .7-39.6 1.5-66.2 1.5"/></svg>
